<?xml version="1.0" encoding="iso-8859-1"?>
<!-- Generator: Adobe Illustrator 18.0.0, SVG Export Plug-In . SVG Version: 6.00 Build 0)  -->
<!DOCTYPE svg PUBLIC "-//W3C//DTD SVG 1.1//EN" "http://www.w3.org/Graphics/SVG/1.1/DTD/svg11.dtd">
<svg version="1.1" id="Layer_1" xmlns="http://www.w3.org/2000/svg" xmlns:xlink="http://www.w3.org/1999/xlink" x="0px" y="0px"
	 viewBox="0 0 893.217 260.987" style="enable-background:new 0 0 893.217 260.987;" xml:space="preserve">
<g>
	<path style="fill:#414145;" d="M77.163,194.992c-11.966,0-22.776-2.591-32.428-7.777c-9.655-5.183-17.392-12.444-23.214-21.778
		c-5.826-9.333-8.735-20.223-8.735-32.667c0-12.601,2.909-23.573,8.735-32.906c5.822-9.333,13.559-16.55,23.214-21.658
		c9.651-5.104,20.462-7.658,32.428-7.658c10.848,0,20.421,2.195,28.718,6.581c8.294,4.39,14.756,11.169,19.385,20.342
		c4.625,9.176,6.94,20.94,6.94,35.299c0,14.202-2.314,25.888-6.94,35.061c-4.629,9.177-11.091,15.997-19.385,20.462
		C97.584,192.76,88.011,194.992,77.163,194.992z M82.907,249.558c-12.126,0-23.812-1.478-35.06-4.428
		c-11.248-2.954-20.623-7.382-28.12-13.282l14.838-26.804c5.422,4.465,12.325,8.018,20.701,10.649
		c8.376,2.633,16.632,3.949,24.77,3.949c13.241,0,22.855-2.954,28.838-8.854c5.983-5.905,8.975-14.678,8.975-26.325v-19.385
		l2.393-32.309l-0.479-32.547V72.461h35.419v107.214c0,23.933-6.222,41.56-18.667,52.89
		C124.07,243.893,106.199,249.558,82.907,249.558z M84.582,164.359c6.54,0,12.362-1.315,17.47-3.948
		c5.104-2.633,9.094-6.342,11.966-11.128c2.872-4.787,4.308-10.291,4.308-16.514c0-6.379-1.436-11.924-4.308-16.632
		c-2.872-4.704-6.862-8.376-11.966-11.009c-5.108-2.632-10.93-3.949-17.47-3.949c-6.544,0-12.366,1.316-17.47,3.949
		c-5.108,2.633-9.135,6.305-12.086,11.009c-2.954,4.708-4.427,10.253-4.427,16.632c0,6.223,1.473,11.727,4.427,16.514
		c2.951,4.786,6.978,8.495,12.086,11.128C72.216,163.044,78.038,164.359,84.582,164.359z"/>
	<path style="fill:#414145;" d="M190.599,54.512c-6.862,0-12.445-1.993-16.752-5.983c-4.308-3.986-6.461-8.933-6.461-14.838
		c0-5.9,2.154-10.848,6.461-14.837c4.308-3.986,9.891-5.983,16.752-5.983c6.858,0,12.445,1.877,16.752,5.624
		c4.308,3.751,6.461,8.578,6.461,14.479c0,6.222-2.116,11.368-6.342,15.436C203.242,52.478,197.618,54.512,190.599,54.512z
		 M171.932,201.215V72.461h37.334v128.753H171.932z"/>
	<path style="fill:#414145;" d="M280.822,194.992c-11.966,0-22.776-2.591-32.428-7.777c-9.655-5.183-17.392-12.444-23.214-21.778
		c-5.826-9.333-8.735-20.223-8.735-32.667c0-12.601,2.909-23.573,8.735-32.906c5.822-9.333,13.559-16.55,23.214-21.658
		c9.651-5.104,20.462-7.658,32.428-7.658c10.848,0,20.421,2.195,28.718,6.581c8.294,4.39,14.756,11.169,19.385,20.342
		c4.625,9.176,6.94,20.94,6.94,35.299c0,14.202-2.314,25.888-6.94,35.061c-4.629,9.177-11.091,15.997-19.385,20.462
		C301.242,192.76,291.67,194.992,280.822,194.992z M286.565,249.558c-12.126,0-23.812-1.478-35.06-4.428
		c-11.248-2.954-20.623-7.382-28.12-13.282l14.838-26.804c5.422,4.465,12.325,8.018,20.701,10.649
		c8.376,2.633,16.632,3.949,24.77,3.949c13.241,0,22.855-2.954,28.838-8.854c5.983-5.905,8.975-14.678,8.975-26.325v-19.385
		l2.393-32.309l-0.479-32.547V72.461h35.419v107.214c0,23.933-6.222,41.56-18.667,52.89
		C327.728,243.893,309.858,249.558,286.565,249.558z M288.241,164.359c6.54,0,12.362-1.315,17.47-3.948
		c5.104-2.633,9.094-6.342,11.966-11.128c2.872-4.787,4.308-10.291,4.308-16.514c0-6.379-1.436-11.924-4.308-16.632
		c-2.872-4.704-6.862-8.376-11.966-11.009c-5.108-2.632-10.93-3.949-17.47-3.949c-6.544,0-12.366,1.316-17.47,3.949
		c-5.108,2.633-9.135,6.305-12.086,11.009c-2.954,4.708-4.427,10.253-4.427,16.632c0,6.223,1.473,11.727,4.427,16.514
		c2.951,4.786,6.978,8.495,12.086,11.128C275.874,163.044,281.697,164.359,288.241,164.359z"/>
	<path style="fill:#414145;" d="M453.849,70.547c10.209,0,19.344,2.034,27.402,6.103c8.055,4.068,14.396,10.291,19.025,18.667
		c4.625,8.376,6.939,19.108,6.939,32.188v73.71h-37.332v-67.967c0-10.369-2.275-18.027-6.822-22.974
		c-4.547-4.943-10.971-7.419-19.264-7.419c-5.906,0-11.211,1.238-15.915,3.709c-4.708,2.476-8.376,6.263-11.009,11.368
		c-2.632,5.108-3.949,11.648-3.949,19.624v63.659h-37.334V23.64h37.334v84.48l-8.376-10.77c4.626-8.616,11.248-15.234,19.863-19.863
		C433.029,72.861,442.839,70.547,453.849,70.547z"/>
	<path style="fill:#414145;" d="M577.336,203.13c-10.691,0-20.223-2.072-28.599-6.223c-8.376-4.147-14.879-10.489-19.505-19.025
		c-4.629-8.533-6.94-19.423-6.94-32.668V72.461h37.334v67.249c0,10.69,2.273,18.547,6.821,23.573
		c4.547,5.025,10.967,7.538,19.265,7.538c5.744,0,10.848-1.233,15.316-3.709c4.465-2.472,7.977-6.301,10.53-11.487
		c2.55-5.183,3.829-11.686,3.829-19.505V72.461h37.334v128.753h-35.419v-35.419l6.461,10.291
		c-4.308,8.937-10.649,15.675-19.025,20.222C596.362,200.855,587.227,203.13,577.336,203.13z"/>
	<path style="fill:#414145;" d="M669.474,201.215V23.64h37.333v74.907l-2.393,38.051l0.718,38.291v26.325H669.474z M745.577,203.13
		c-11.331,0-21.061-2.394-29.197-7.18c-8.137-4.787-14.359-12.086-18.667-21.897c-4.308-9.813-6.462-22.216-6.462-37.215
		c0-15.155,2.273-27.6,6.821-37.334c4.547-9.73,10.889-16.992,19.025-21.778c8.137-4.787,17.628-7.18,28.479-7.18
		c12.123,0,23.012,2.715,32.667,8.137c9.651,5.426,17.31,13.084,22.975,22.975c5.661,9.895,8.496,21.621,8.496,35.18
		c0,13.402-2.835,25.05-8.496,34.94c-5.665,9.895-13.323,17.59-22.975,23.095C768.589,200.377,757.701,203.13,745.577,203.13z
		 M739.116,172.497c6.223,0,11.764-1.437,16.633-4.308c4.865-2.872,8.772-6.979,11.727-12.325c2.95-5.344,4.428-11.686,4.428-19.026
		c0-7.497-1.478-13.88-4.428-19.145c-2.954-5.265-6.861-9.333-11.727-12.206c-4.869-2.872-10.41-4.308-16.633-4.308
		s-11.809,1.436-16.752,4.308c-4.947,2.872-8.855,6.94-11.728,12.206c-2.871,5.265-4.308,11.648-4.308,19.145
		c0,7.341,1.437,13.683,4.308,19.026c2.872,5.347,6.78,9.453,11.728,12.325C727.307,171.061,732.893,172.497,739.116,172.497z"/>
	<path style="fill:#36B772;" d="M842.738,203.13c-6.383,0-11.846-2.191-16.394-6.582c-4.547-4.386-6.82-10.01-6.82-16.872
		c0-6.857,2.273-12.403,6.82-16.632c4.548-4.226,10.011-6.343,16.394-6.343c6.54,0,12.045,2.117,16.514,6.343
		c4.465,4.229,6.7,9.774,6.7,16.632c0,6.862-2.235,12.486-6.7,16.872C854.783,200.938,849.278,203.13,842.738,203.13z"/>
</g>
</svg>
