<?xml version="1.0" encoding="utf-8"?>
<!-- Generator: Adobe Illustrator 18.0.0, SVG Export Plug-In . SVG Version: 6.00 Build 0)  -->
<!DOCTYPE svg PUBLIC "-//W3C//DTD SVG 1.1//EN" "http://www.w3.org/Graphics/SVG/1.1/DTD/svg11.dtd">
<svg version="1.1" id="Layer_1" xmlns="http://www.w3.org/2000/svg" xmlns:xlink="http://www.w3.org/1999/xlink" x="0px" y="0px"
	 viewBox="38.1 197 438.8 114.3" enable-background="new 38.1 197 438.8 114.3" xml:space="preserve">
<g>
	<path fill="#7A7D85" d="M70.3,283.4c-5.8,0-11.2-1.3-16-3.9c-4.9-2.6-8.8-6.3-11.7-11c-2.9-4.7-4.4-10.3-4.4-16.8s1.5-12,4.4-16.8
		c2.9-4.7,6.9-8.4,11.7-10.9c4.9-2.6,10.2-3.9,16-3.9c5.6,0,10.3,1.1,14.3,3.3c4,2.2,7,5.7,9,10.3c2.1,4.7,3.1,10.6,3.1,17.9
		s-1,13.2-3.1,17.9c-2.1,4.7-5.1,8.2-9,10.4S75.8,283.4,70.3,283.4z M74.2,311.3c-6.3,0-12.3-0.7-18-2.2c-5.7-1.5-10.5-3.6-14.6-6.4
		l8.3-16.1c2.7,2.2,6.1,3.9,10.2,5.1c4.1,1.2,8,1.9,11.9,1.9c6.2,0,10.7-1.4,13.4-4.1c2.7-2.7,4.1-6.6,4.1-11.8v-7.7l1.2-18.4
		l-0.1-18.5v-12h21.9v53.6c0,12.4-3.4,21.6-10,27.6C96,308.3,86.5,311.3,74.2,311.3z M75.7,265.1c2.7,0,5.2-0.6,7.3-1.7
		c2.1-1.1,3.8-2.7,5.1-4.7c1.3-2,1.9-4.4,1.9-7c0-2.7-0.6-5-1.9-7c-1.3-2-2.9-3.6-5.1-4.7c-2.1-1.1-4.6-1.6-7.3-1.6
		s-5.2,0.5-7.4,1.6c-2.2,1.1-3.9,2.6-5.1,4.7c-1.3,2-1.9,4.4-1.9,7c0,2.7,0.6,5,1.9,7c1.3,2,3,3.6,5.1,4.7
		C70.5,264.5,73,265.1,75.7,265.1z"/>
	<path fill="#7A7D85" d="M116.9,286.8v-64.4h18.2v64.4H116.9z"/>
	<path fill="#7A7D85" d="M169.7,283.4c-5.8,0-11.2-1.3-16-3.9c-4.9-2.6-8.8-6.3-11.7-11c-2.9-4.7-4.4-10.3-4.4-16.8s1.5-12,4.4-16.8
		c2.9-4.7,6.9-8.4,11.7-10.9c4.9-2.6,10.2-3.9,16-3.9c5.6,0,10.3,1.1,14.3,3.3c4,2.2,7,5.7,9,10.3c2.1,4.7,3.1,10.6,3.1,17.9
		s-1,13.2-3.1,17.9c-2.1,4.7-5.1,8.2-9,10.4S175.3,283.4,169.7,283.4z M173.7,311.3c-6.3,0-12.3-0.7-18-2.2
		c-5.7-1.5-10.5-3.6-14.6-6.4l8.3-16.1c2.7,2.2,6.1,3.9,10.2,5.1c4.1,1.2,8,1.9,11.9,1.9c6.2,0,10.7-1.4,13.4-4.1
		c2.7-2.7,4.1-6.6,4.1-11.8v-7.7l1.2-18.4l-0.1-18.5v-12h21.9v53.6c0,12.4-3.4,21.6-10,27.6C195.4,308.3,185.9,311.3,173.7,311.3z
		 M175.1,265.1c2.7,0,5.2-0.6,7.3-1.7c2.1-1.1,3.8-2.7,5.1-4.7c1.3-2,1.9-4.4,1.9-7c0-2.7-0.6-5-1.9-7c-1.3-2-2.9-3.6-5.1-4.7
		c-2.1-1.1-4.6-1.6-7.3-1.6s-5.2,0.5-7.4,1.6c-2.2,1.1-3.9,2.6-5.1,4.7c-1.3,2-1.9,4.4-1.9,7c0,2.7,0.6,5,1.9,7c1.3,2,3,3.6,5.1,4.7
		C169.9,264.5,172.4,265.1,175.1,265.1z"/>
	<path fill="#7A7D85" d="M259.9,220.1c5.1,0,9.7,1,13.8,3.1c4.1,2.1,7.4,5.2,9.7,9.5c2.4,4.3,3.6,9.8,3.6,16.6v37.5h-23V253
		c0-4.7-1-8.1-2.8-10.2c-1.9-2.1-4.5-3.2-7.9-3.2c-2.4,0-4.6,0.5-6.7,1.6c-2,1.1-3.6,2.8-4.7,5s-1.7,5.2-1.7,8.8v31.7h-23V197h23
		v42.8l-5.3-5.4c2.5-4.8,5.9-8.3,10.3-10.7C249.5,221.3,254.5,220.1,259.9,220.1z"/>
	<path fill="#7A7D85" d="M319.4,287.8c-5.3,0-10.1-1.1-14.3-3.1c-4.2-2.1-7.5-5.4-9.9-9.9c-2.4-4.5-3.6-10.1-3.6-17v-36.7h23v32.9
		c0,5.1,0.9,8.7,2.8,10.9c1.9,2.2,4.6,3.3,8,3.3c2.3,0,4.3-0.5,6.2-1.6c1.9-1,3.3-2.7,4.5-5c1.1-2.3,1.7-5.3,1.7-8.9v-31.6h23v65.6
		h-21.9v-18.5l4.2,5.2c-2.3,4.8-5.5,8.5-9.8,10.8C329,286.7,324.4,287.8,319.4,287.8z"/>
	<path fill="#7A7D85" d="M365.8,286.8V197h23v35.2l-1.2,21.7l0.1,21.7v11.3H365.8z M407.1,287.8c-5.9,0-10.8-1.2-14.7-3.6
		c-3.9-2.4-6.8-6.1-8.8-11.1c-1.9-5-2.9-11.4-2.9-19.2c0-7.7,1-14,3.1-19c2.1-5,5.1-8.7,9-11.1c3.9-2.4,8.7-3.6,14.3-3.6
		c6,0,11.4,1.4,16.3,4.1c4.9,2.7,8.8,6.6,11.6,11.7c2.9,5,4.3,11,4.3,18c0,7-1.4,13-4.3,18.1c-2.9,5-6.7,9-11.6,11.7
		C418.5,286.5,413,287.8,407.1,287.8z M402.2,269.6c2.6,0,4.9-0.6,7-1.8c2.1-1.2,3.7-3,5-5.4c1.2-2.4,1.9-5.2,1.9-8.5
		c0-3.3-0.6-6.1-1.9-8.4c-1.3-2.3-2.9-4.1-5-5.3c-2.1-1.2-4.4-1.8-7-1.8c-2.6,0-4.9,0.6-7,1.8c-2.1,1.2-3.7,3-5,5.3
		c-1.3,2.3-1.9,5.1-1.9,8.4c0,3.3,0.6,6.1,1.9,8.5c1.2,2.4,2.9,4.2,5,5.4C397.3,269,399.6,269.6,402.2,269.6z"/>
</g>
<circle display="none" fill="#1DBF73" cx="456.7" cy="272.6" r="14.2"/>
<text transform="matrix(1 0 0 1 431.5278 288.0086)" fill="#7A7D85" font-family="'Montserrat-ExtraBold'" font-size="42.5315"> ®</text>
</svg>
