  <svg width="15" height="15" viewBox="0 0 15 15" fill="none" xmlns="http://www.w3.org/2000/svg"><g opacity="0.7"><path fill-rule="evenodd" clip-rule="evenodd" d="M7.44336 2.75C4.882 2.75 2.75 4.88 2.75 7.5C2.75 10.06 4.88 12.25 7.5 12.25C10.06 12.25 12.25 10.06 12.25 7.5C12.25 4.88 10.06 2.75 7.44336 2.75ZM1.25 7.5C1.25 4.332 4.33 1.25 7.5 1.25C10.668 1.25 13.75 4.332 13.75 7.5C13.75 10.668 10.668 13.75 7.5 13.75C4.33 13.75 1.25 10.668 1.25 7.5ZM7.5 6.0416C7.8027 6.0416 8.0416 6.2805 8.0416 6.5832V9.5832C8.0416 9.8859 7.8027 10.1248 7.5 10.1248C7.1973 10.1248 6.9584 9.8859 6.9584 9.5832V6.5832C6.9584 6.2805 7.1973 6.0416 7.5 6.0416ZM7.5 4.2082C7.8027 4.2082 8.0416 4.4471 8.0416 4.7498V5.0416C8.0416 5.3443 7.8027 5.5832 7.5 5.5832C7.1973 5.5832 6.9584 5.3443 6.9584 5.0416V4.7498C6.9584 4.4471 7.1973 4.2082 7.5 4.2082Z" fill="#95979D" ></path> </g> </svg>