<svg width="64" height="65" viewBox="0 0 64 65" fill="none" xmlns="http://www.w3.org/2000/svg"><path d="M31.818 57.062C17.895 57.062 6.6 45.776 6.6 31.844a25.092 25.092 0 016.318-16.697" stroke="#404145" stroke-width="1.6" stroke-linecap="round" stroke-linejoin="round"/><path d="M14.052 19.009l-.073-5.349-5.003 1.886m22.806-8.92C45.706 6.626 57 17.912 57 31.844a25.092 25.092 0 01-6.318 16.697" stroke="#404145" stroke-width="1.6" stroke-linecap="round" stroke-linejoin="round"/><path d="M49.55 44.68l.072 5.348 4.995-1.894m-22.862.48c9.261 0 16.77-7.508 16.77-16.77 0-9.261-7.509-16.769-16.77-16.769-9.262 0-16.77 7.508-16.77 16.77 0 9.261 7.508 16.77 16.77 16.77z" stroke="#404145" stroke-width="1.6" stroke-linecap="round" stroke-linejoin="round"/><path d="M25.637 31.06l4.29 4.781 8.046-8.366" stroke="#404145" stroke-width="1.6" stroke-linecap="round" stroke-linejoin="round"/></svg>