<svg width="64" height="65" viewBox="0 0 64 65" fill="none" xmlns="http://www.w3.org/2000/svg"><path d="M9.015 10.992c1.114 0 2.017-.888 2.017-1.984s-.903-1.984-2.017-1.984C7.902 7.024 7 7.912 7 9.008s.903 1.984 2.016 1.984zm0 46.033c1.114 0 2.016-.889 2.016-1.984 0-1.096-.902-1.985-2.016-1.985-1.113 0-2.016.889-2.016 1.985 0 1.095.903 1.984 2.016 1.984zm45.969-46.033c1.113 0 2.016-.888 2.016-1.984s-.903-1.984-2.016-1.984c-1.114 0-2.017.888-2.017 1.984s.903 1.984 2.017 1.984zm0 46.033c1.113 0 2.016-.889 2.016-1.984 0-1.096-.903-1.985-2.016-1.985-1.114 0-2.017.889-2.017 1.985 0 1.095.903 1.984 2.017 1.984z" stroke="#404145" stroke-width="1.6" stroke-miterlimit="10"/><path d="M11.032 9.405h41.533m-41.13 45.238h41.533m2.217-43.056v40.874M9.217 11.587v40.874" stroke="#404145" stroke-width="1.6" stroke-miterlimit="10" stroke-linecap="round" stroke-linejoin="round"/><path d="M36.33 17.601H24.423l-4.33 16.235h8.66l-2.166 12.987 17.317-19.481h-9.74l2.164-9.74z" stroke="#404145" stroke-width="1.5" stroke-linecap="round" stroke-linejoin="round"/></svg>