<svg xmlns="http://www.w3.org/2000/svg" width="12" height="12" viewBox="0 0 14 14" fill="currentColor"><path fill-rule="evenodd" d="M8.203.432a1.89 1.89 0 0 0-2.406 0l-1.113.912a1.9 1.9 0 0 1-.783.384l-1.395.318c-.88.2-1.503.997-1.5 1.915l.007 1.456c0 .299-.065.594-.194.863L.194 7.59a1.98 1.98 0 0 0 .535 2.388l1.12.903c.231.185.417.422.543.692l.615 1.314a1.91 1.91 0 0 0 2.166 1.063l1.392-.33c.286-.068.584-.068.87 0l1.392.33a1.91 1.91 0 0 0 2.166-1.063l.615-1.314c.126-.27.312-.507.542-.692l1.121-.903c.707-.57.93-1.563.535-2.388l-.625-1.309a2 2 0 0 1-.194-.863l.006-1.456a1.95 1.95 0 0 0-1.5-1.915L10.1 1.728a1.9 1.9 0 0 1-.784-.384zm2.184 5.883a.74.74 0 0 0 0-1.036.71.71 0 0 0-1.018 0L6.565 8.135 5.095 6.73a.71.71 0 0 0-1.018.032.74.74 0 0 0 .032 1.036L6.088 9.69a.71.71 0 0 0 1.001-.016z" clip-rule="evenodd"></path></svg>